<svg width="11" height="20" viewBox="0 0 11 20" fill="none" xmlns="http://www.w3.org/2000/svg">
<path d="M10.3899 11.025C10.6733 10.7416 10.8149 10.3583 10.8149 9.87495C10.8149 9.65828 10.7816 9.45828 10.7149 9.27495C10.6483 9.09162 10.5399 8.94995 10.3899 8.84995L2.98994 1.34995C2.82327 1.18328 2.65244 1.05412 2.47744 0.96245C2.30244 0.870785 2.08994 0.824951 1.83994 0.824951C1.42327 0.824951 1.08161 0.966618 0.814941 1.24995C0.648275 1.39995 0.519108 1.57495 0.427441 1.77495C0.335775 1.97495 0.289941 2.17495 0.289941 2.37495C0.289941 2.87495 0.423275 3.25828 0.689941 3.52495L7.06494 9.99995L0.589941 16.975C0.323275 17.2416 0.189941 17.625 0.189941 18.125C0.189941 18.525 0.356608 18.9083 0.689941 19.275C1.02327 19.475 1.40661 19.575 1.83994 19.575C2.05661 19.575 2.26494 19.5291 2.46494 19.4375C2.66494 19.3458 2.83994 19.2166 2.98994 19.05L10.3899 11.025Z" fill="#EDEDED" fill-opacity="0.9"/>
</svg>
