<svg width="51" height="52" viewBox="0 0 51 52" fill="none" xmlns="http://www.w3.org/2000/svg">
<path d="M3.58001 28.3773L3.25283 19.008C3.23919 18.6176 3.32657 18.3214 3.41394 18.0252L6.07353 4.643C6.40257 2.87262 7.92322 1.64693 9.67996 1.58559L29.9801 0.87669C31.3464 0.828975 32.5381 1.37366 33.2553 2.32577L46.3475 19.0666C47.6776 20.779 47.3725 23.2325 45.66 24.5626C43.9476 25.8928 41.494 25.5876 40.1639 23.8751L36.8943 19.7875L37.8349 46.7242C37.9099 48.8714 36.3121 50.686 34.0674 50.7644C31.9203 50.8394 30.1022 49.144 30.0272 46.9969L29.3456 27.4775L28.5648 27.5048L28.7011 31.4087C28.7761 33.5558 27.1783 35.3705 24.9336 35.4489C22.7864 35.5239 20.9683 33.8285 20.8934 31.6813L20.757 27.7775L19.9763 27.8047L20.0581 30.147C20.133 32.2942 18.5352 34.1089 16.2905 34.1872C14.1434 34.2622 12.3253 32.5668 12.2503 30.4197L12.1685 28.0774L11.3878 28.1046C11.4627 30.2518 9.86493 32.0664 7.62021 32.1448C5.47308 32.2198 3.65499 30.5244 3.58001 28.3773ZM28.2921 19.6971L29.0729 19.6698L28.7457 10.3005L27.9649 10.3278L28.2921 19.6971ZM19.7036 19.997L20.4844 19.9697L20.1572 10.6004L19.3764 10.6277L19.7036 19.997ZM11.1151 20.2969L11.8959 20.2696L11.5687 10.9003L10.7879 10.9276L11.1151 20.2969Z" fill="#EDA704"/>
</svg>
