<svg width="11" height="20" viewBox="0 0 11 20" fill="none" xmlns="http://www.w3.org/2000/svg">
<path d="M9.16006 0.824951C8.96006 0.824951 8.76423 0.866617 8.57256 0.949951C8.38089 1.03329 8.22673 1.13328 8.11006 1.24995L0.710059 8.74995C0.443392 9.01662 0.310059 9.39578 0.310059 9.88745C0.310059 10.3791 0.443392 10.7583 0.710059 11.025L8.11006 19.05C8.29339 19.2333 8.46423 19.3666 8.62256 19.45C8.78089 19.5333 8.96006 19.575 9.16006 19.575C9.64339 19.575 10.0267 19.4333 10.3101 19.15C10.4601 19 10.5851 18.8208 10.6851 18.6125C10.7851 18.4041 10.8351 18.2 10.8351 18C10.8351 17.5166 10.6601 17.1416 10.3101 16.875L3.96006 9.87495L10.3101 3.32495C10.5767 3.05828 10.7101 2.74162 10.7101 2.37495C10.7101 1.89162 10.5767 1.51662 10.3101 1.24995C10.0934 1.08328 9.90173 0.970785 9.73506 0.912451C9.56839 0.854118 9.37673 0.824951 9.16006 0.824951Z" fill="#EDEDED" fill-opacity="0.9"/>
</svg>
